<?xml version="1.0" encoding="UTF-8" standalone="no"?>
<svg
   height="24px"
   viewBox="0 -960 960 960"
   width="24px"
   fill="#df6069"
   version="1.1"
   id="svg1"
   sodipodi:docname="number4_grey.svg"
   inkscape:version="1.4.2 (ebf0e940, 2025-05-08)"
   xmlns:inkscape="http://www.inkscape.org/namespaces/inkscape"
   xmlns:sodipodi="http://sodipodi.sourceforge.net/DTD/sodipodi-0.dtd"
   xmlns="http://www.w3.org/2000/svg"
   xmlns:svg="http://www.w3.org/2000/svg">
  <defs
     id="defs1" />
  <sodipodi:namedview
     id="namedview1"
     pagecolor="#ffffff"
     bordercolor="#666666"
     borderopacity="1.0"
     inkscape:showpageshadow="2"
     inkscape:pageopacity="0.0"
     inkscape:pagecheckerboard="0"
     inkscape:deskcolor="#d1d1d1"
     inkscape:zoom="5.66"
     inkscape:cx="11.660777"
     inkscape:cy="22.173145"
     inkscape:window-width="1200"
     inkscape:window-height="750"
     inkscape:window-x="0"
     inkscape:window-y="30"
     inkscape:window-maximized="0"
     inkscape:current-layer="svg1" />
  <path
     d="M520-280h80v-400h-80v160h-80v-160h-80v240h160v160ZM200-120q-33 0-56.5-23.5T120-200v-560q0-33 23.5-56.5T200-840h560q33 0 56.5 23.5T840-760v560q0 33-23.5 56.5T760-120H200Z"
     fill="#e0e0e0"
     id="path1" />
  <path
     style="fill:#261314;stroke:#df6069;stroke-width:0.00441696;stroke-linejoin:bevel"
     d="m 13.124161,14.973498 -0.04996,-1.987632 -1.987633,-0.04996 -1.9876321,-0.04996 V 9.9765458 7.0671378 H 9.9823282 10.86572 v 2.0402327 2.0402325 l 1.104241,-0.0526 1.10424,-0.0526 0.04996,-1.9876327 0.04996,-1.9876325 h 0.877606 0.877606 v 4.9469962 4.946997 h -0.877606 -0.877606 z"
     id="path2"
     transform="matrix(40,0,0,40,0,-960)" />
</svg>
