<?xml version="1.0" encoding="UTF-8" standalone="no"?>
<svg
   height="24px"
   viewBox="0 -960 960 960"
   width="24px"
   fill="#df6069"
   version="1.1"
   id="svg1"
   sodipodi:docname="number_grey.svg"
   inkscape:version="1.4.2 (ebf0e940, 2025-05-08)"
   xmlns:inkscape="http://www.inkscape.org/namespaces/inkscape"
   xmlns:sodipodi="http://sodipodi.sourceforge.net/DTD/sodipodi-0.dtd"
   xmlns="http://www.w3.org/2000/svg"
   xmlns:svg="http://www.w3.org/2000/svg">
  <defs
     id="defs1" />
  <sodipodi:namedview
     id="namedview1"
     pagecolor="#ffffff"
     bordercolor="#666666"
     borderopacity="1.0"
     inkscape:showpageshadow="2"
     inkscape:pageopacity="0.0"
     inkscape:pagecheckerboard="0"
     inkscape:deskcolor="#d1d1d1"
     inkscape:zoom="2"
     inkscape:cx="0"
     inkscape:cy="49.75"
     inkscape:window-width="1264"
     inkscape:window-height="760"
     inkscape:window-x="0"
     inkscape:window-y="30"
     inkscape:window-maximized="0"
     inkscape:current-layer="svg1" />
  <path
     d="M440-280h80q33 0 56.5-23.5T600-360v-80q0-33-23.5-56.5T520-520h-80v-80h120v-80H440q-33 0-56.5 23.5T360-600v240q0 33 23.5 56.5T440-280Zm0-160h80v80h-80v-80ZM200-120q-33 0-56.5-23.5T120-200v-560q0-33 23.5-56.5T200-840h560q33 0 56.5 23.5T840-760v560q0 33-23.5 56.5T760-120H200Z"
     fill="#e0e0e0"
     id="path1" />
  <path
     style="fill:#261314;stroke:#df6069;stroke-width:0.0125;stroke-linejoin:bevel"
     d="M 10.111253,16.221648 C 9.1484901,15.547303 9,14.989755 9,12.049142 9,8.1518997 9.7789467,7 12.41437,7 13.666667,7 14,7.2102214 14,8 14,8.7777778 13.666667,9 12.5,9 11.333333,9 11,9.2222222 11,10 c 0,0.727145 0.333333,1 1.221648,1 C 13.535159,11 15,12.640357 15,14.111253 15,15.257467 13.257467,17 12.111253,17 c -0.488811,0 -1.388811,-0.350259 -2,-0.778352 z M 13,14 c 0,-0.666666 -0.333333,-1 -1,-1 -0.666667,0 -1,0.333334 -1,1 0,0.666667 0.333333,1 1,1 0.666667,0 1,-0.333333 1,-1 z"
     id="path2"
     transform="matrix(40,0,0,40,0,-960)" />
</svg>
