<svg xmlns="http://www.w3.org/2000/svg" xmlns:svg="http://www.w3.org/2000/svg" height="24" viewBox="0 -960 960 960" width="24" fill="#5165a6" version="1.1" id="svg1" xml:space="preserve"><defs id="defs1" fill="#5165a6"/><path d="m 480,-280 h 80 V -680 H 400 v 80 h 80 z m -280,160 q -33,0 -56.5,-23.5 Q 120,-167 120,-200 v -560 q 0,-33 23.5,-56.5 Q 167,-840 200,-840 h 560 q 33,0 56.5,23.5 23.5,23.5 23.5,56.5 v 560 q 0,33 -23.5,56.5 Q 793,-120 760,-120 Z" id="path1" fill="#5165a6" style="fill:#5165a6;fill-opacity:1;stroke:#5165a6;stroke-width:1;stroke-dasharray:none;stroke-opacity:1"/><rect style="fill:#ffffff;stroke:none;stroke-width:163.591;stroke-linejoin:bevel" id="rect1" width="494.97482" height="512.6524" x="226.27417" y="-733.72583"/><g style="fill:#5165a6" id="g2" transform="matrix(0.89393398,0,0,0.89393398,47.584308,-50.635173)"><path d="m 440,-280 h 80 l 78,-310 q 2,-5 2,-9 v -9 q 0,-29 -20.5,-50.5 Q 559,-680 530,-680 H 360 v 80 h 160 z m 40,200 Q 397,-80 324,-111.5 251,-143 197,-197 143,-251 111.5,-324 80,-397 80,-480 q 0,-83 31.5,-156 31.5,-73 85.5,-127 54,-54 127,-85.5 73,-31.5 156,-31.5 83,0 156,31.5 73,31.5 127,85.5 54,54 85.5,127 31.5,73 31.5,156 0,83 -31.5,156 -31.5,73 -85.5,127 -54,54 -127,85.5 Q 563,-80 480,-80 Z" id="path1-0" fill="#5165a6"/></g><rect style="fill:#fefefe;fill-opacity:1;stroke:none;stroke-width:6.78651;stroke-linejoin:bevel" id="rect2" width="484.3681" height="463.15497" x="240.41629" y="-719.58374"/><g style="fill:#5165a6;stroke:#5165a6;stroke-opacity:1" id="g3" transform="matrix(0.89393399,0,0,0.89393399,47.584304,-50.635145)"><path d="M 480,-80 Q 397,-80 324,-111.5 251,-143 197,-197 143,-251 111.5,-324 80,-397 80,-480 q 0,-83 31.5,-156 31.5,-73 85.5,-127 54,-54 127,-85.5 73,-31.5 156,-31.5 83,0 156,31.5 73,31.5 127,85.5 54,54 85.5,127 31.5,73 31.5,156 0,83 -31.5,156 -31.5,73 -85.5,127 -54,54 -127,85.5 Q 563,-80 480,-80 Z m -40,-200 h 80 q 33,0 56.5,-23.5 Q 600,-327 600,-360 v -60 q 0,-25 -17.5,-42.5 Q 565,-480 540,-480 q 25,0 42.5,-17.5 Q 600,-515 600,-540 v -60 q 0,-33 -23.5,-56.5 Q 553,-680 520,-680 h -80 q -33,0 -56.5,23.5 Q 360,-633 360,-600 v 60 q 0,25 17.5,42.5 17.5,17.5 42.5,17.5 -25,0 -42.5,17.5 Q 360,-445 360,-420 v 60 q 0,33 23.5,56.5 23.5,23.5 56.5,23.5 z m 0,-320 h 80 v 80 h -80 z m 0,240 v -80 h 80 v 80 z" id="path1-05" style="stroke:#5165a6;stroke-opacity:1" fill="#5165a6"/></g></svg>